<?xml version="1.0" standalone="no"?>
<!DOCTYPE svg PUBLIC "-//W3C//DTD SVG 20010904//EN"
 "http://www.w3.org/TR/2001/REC-SVG-20010904/DTD/svg10.dtd">
<svg version="1.0" xmlns="http://www.w3.org/2000/svg"
 width="512.000000pt" height="512.000000pt" viewBox="0 0 512.000000 512.000000"
 preserveAspectRatio="xMidYMid meet">
<metadata>
Created by potrace 1.14, written by Peter Selinger 2001-2017
</metadata>
<g transform="translate(0.000000,512.000000) scale(0.100000,-0.100000)"
fill="#000000" stroke="none">
<path d="M602 5110 c-32 -13 -42 -49 -42 -146 l0 -84 -72 0 c-40 -1 -154 -1
-253 -1 -162 0 -182 -1 -205 -19 l-25 -19 -2 -2168 c-1 -1439 1 -2186 8 -2223
18 -96 81 -211 156 -285 75 -75 189 -137 283 -154 72 -13 4136 -15 4206 -2 71
14 153 46 210 83 56 37 144 125 164 166 8 15 19 34 26 42 6 8 22 47 35 85 23
68 24 78 24 422 0 325 -1 354 -18 370 -16 17 -51 18 -477 21 l-460 3 0 970 0
970 151 262 c83 144 175 303 204 352 29 50 60 104 69 120 23 41 51 91 129 224
37 62 67 118 67 122 0 16 18 10 84 -27 l66 -36 -16 -30 c-9 -17 -36 -64 -60
-105 -24 -41 -44 -77 -44 -80 0 -3 -8 -17 -19 -31 -10 -15 -29 -47 -43 -72
-14 -25 -58 -103 -99 -173 -41 -70 -86 -149 -101 -175 -42 -72 -35 -111 23
-142 25 -14 62 -3 87 23 17 19 87 136 152 252 12 22 46 81 75 130 29 50 64
110 78 135 14 25 55 97 91 159 36 63 66 124 66 136 0 37 -27 61 -138 125
l-109 62 33 67 c37 73 44 106 34 163 -6 32 -2 47 29 100 52 89 64 122 64 178
0 122 -88 221 -209 236 -109 13 -187 -34 -258 -154 -41 -69 -53 -82 -96 -101
-67 -30 -90 -60 -205 -260 l-100 -172 -5 204 c-5 184 -7 205 -24 223 -20 19
-91 22 -548 24 l-66 0 -4 100 c-3 111 -12 127 -69 136 -24 3 -41 -1 -59 -15
-23 -18 -25 -27 -28 -120 l-4 -101 -44 0 c-24 -1 -93 -1 -154 -1 -60 0 -130 0
-154 1 l-44 0 -4 100 c-4 117 -14 135 -79 135 -65 0 -79 -26 -79 -141 l0 -93
-47 -3 c-27 -2 -116 -2 -200 0 l-151 3 -4 99 c-3 113 -13 130 -72 135 -24 2
-43 -3 -58 -15 -21 -16 -23 -29 -26 -119 l-4 -100 -76 -3 c-43 -2 -132 -2
-199 0 l-121 3 -4 99 c-3 111 -12 127 -69 136 -24 3 -41 -1 -59 -15 -23 -18
-25 -27 -28 -120 l-4 -100 -151 -3 c-84 -2 -173 -2 -199 0 l-46 3 -4 99 c-4
117 -14 135 -79 135 -65 0 -79 -26 -79 -141 l0 -93 -87 -3 c-49 -2 -138 -2
-200 0 l-111 3 -4 99 c-3 109 -12 128 -64 135 -16 2 -39 0 -52 -5z"/>
</g>
</svg>
